<svg xmlns="http://www.w3.org/2000/svg" viewBox="0 0 400 320"><rect width="400" height="320" fill="#eef4ff"/><path d="M132 190 C118 165 139 132 171 136 C185 112 218 106 240 126 C272 118 298 139 298 168 C312 175 319 189 312 204 C303 224 277 230 254 225 L166 225 C146 230 120 218 119 198 C118 195 118 193 132 190Z" fill="#ffffff" stroke="#c8d9ff" stroke-width="4"/><circle cx="182" cy="180" r="7" fill="#5b6c8c"/><circle cx="220" cy="180" r="7" fill="#5b6c8c"/><path d="M183 198 Q201 212 219 198" stroke="#ff8fb1" stroke-width="4" fill="none" stroke-linecap="round"/><text x="200" y="292" text-anchor="middle" font-family="Arial" font-size="24" fill="#56648a">Mini Nube</text></svg>

